<?xml version="1.0" standalone="no"?>
<!DOCTYPE svg PUBLIC "-//W3C//DTD SVG 20010904//EN"
 "http://www.w3.org/TR/2001/REC-SVG-20010904/DTD/svg10.dtd">
<svg version="1.0" xmlns="http://www.w3.org/2000/svg"
 width="106.000000pt" height="106.000000pt" viewBox="0 0 106.000000 106.000000"
 preserveAspectRatio="xMidYMid meet">
<metadata>
Created by potrace 1.11, written by Peter Selinger 2001-2013
</metadata>
<g transform="translate(0.000000,106.000000) scale(0.100000,-0.100000)"
fill="#000000" stroke="none">
<path d="M401 994 c-80 -21 -149 -62 -211 -124 -187 -187 -186 -472 0 -661
182 -185 476 -184 661 0 184 185 185 479 0 661 -122 120 -291 167 -450 124z
m246 -204 c59 -26 85 -71 80 -133 -3 -35 -11 -56 -30 -74 l-25 -26 32 -31 c81
-76 39 -225 -72 -256 -20 -5 -103 -10 -184 -10 l-148 0 0 275 0 275 153 0
c128 0 159 -3 194 -20z"/>
<path d="M410 650 l0 -60 69 0 c102 0 140 18 141 66 0 41 -30 54 -123 54 l-87
0 0 -60z"/>
<path d="M410 430 l0 -70 90 0 c102 0 130 15 130 70 0 55 -28 70 -130 70 l-90
0 0 -70z"/>
</g>
</svg>
